<?xml version="1.0" encoding="UTF-8" standalone="no"?>
<!-- Created with Inkscape (http://www.inkscape.org/) -->

<svg
   xmlns:dc="http://purl.org/dc/elements/1.1/"
   xmlns:cc="http://creativecommons.org/ns#"
   xmlns:rdf="http://www.w3.org/1999/02/22-rdf-syntax-ns#"
   xmlns:svg="http://www.w3.org/2000/svg"
   xmlns="http://www.w3.org/2000/svg"
   xmlns:sodipodi="http://sodipodi.sourceforge.net/DTD/sodipodi-0.dtd"
   xmlns:inkscape="http://www.inkscape.org/namespaces/inkscape"
   width="744.09448819"
   height="1052.3622047"
   id="svg2"
   version="1.1"
   inkscape:version="0.47 r22583"
   sodipodi:docname="poodle.svg">
  <defs
     id="defs4">
    <inkscape:perspective
       sodipodi:type="inkscape:persp3d"
       inkscape:vp_x="0 : 526.18109 : 1"
       inkscape:vp_y="0 : 1000 : 0"
       inkscape:vp_z="744.09448 : 526.18109 : 1"
       inkscape:persp3d-origin="372.04724 : 350.78739 : 1"
       id="perspective10" />
    <inkscape:perspective
       id="perspective2824"
       inkscape:persp3d-origin="0.5 : 0.33333333 : 1"
       inkscape:vp_z="1 : 0.5 : 1"
       inkscape:vp_y="0 : 1000 : 0"
       inkscape:vp_x="0 : 0.5 : 1"
       sodipodi:type="inkscape:persp3d" />
    <filter
       inkscape:collect="always"
       id="filter3656"
       x="-0.33587297"
       width="1.6717459"
       y="-0.335732"
       height="1.671464">
      <feGaussianBlur
         inkscape:collect="always"
         stdDeviation="21.579514"
         id="feGaussianBlur3658" />
    </filter>
  </defs>
  <sodipodi:namedview
     id="base"
     pagecolor="#ffffff"
     bordercolor="#666666"
     borderopacity="1.0"
     inkscape:pageopacity="0.0"
     inkscape:pageshadow="2"
     inkscape:zoom="2.8"
     inkscape:cx="340.68264"
     inkscape:cy="756.35322"
     inkscape:document-units="px"
     inkscape:current-layer="layer1"
     showgrid="false"
     inkscape:window-width="1680"
     inkscape:window-height="975"
     inkscape:window-x="0"
     inkscape:window-y="24"
     inkscape:window-maximized="1" />
  <metadata
     id="metadata7">
    <rdf:RDF>
      <cc:Work
         rdf:about="">
        <dc:format>image/svg+xml</dc:format>
        <dc:type
           rdf:resource="http://purl.org/dc/dcmitype/StillImage" />
        <dc:title></dc:title>
      </cc:Work>
    </rdf:RDF>
  </metadata>
  <g
     inkscape:label="Layer 1"
     inkscape:groupmode="layer"
     id="layer1">
    <g
       id="g3660"
       inkscape:export-xdpi="89.356339"
       inkscape:export-ydpi="89.356339">
      <path
         id="path3663"
         d="m 357.40625,190.62232 c -1.69166,-0.13258 -3.29928,0.0777 -5.34375,0.55562 -6.1203,1.43063 -15.98863,5.92881 -19.59375,8.33432 -2.36915,1.58081 -4.26532,4.54558 -3.34375,7.42778 0.65079,2.03533 0.82242,2.92967 1.09375,3.80162 0.27133,0.87196 0.64994,1.67391 1.6875,3.45071 0.52066,0.89163 0.85179,1.62443 1.03125,2.19324 0.17946,0.5688 0.20359,0.95157 0.0937,1.22821 -0.10984,0.27665 -0.33623,0.50656 -0.8125,0.73108 -0.47627,0.22453 -1.18922,0.41476 -2.125,0.58487 -0.8822,0.16036 -2.48933,0.72341 -4.5,1.43292 -2.01067,0.70951 -4.38975,1.55973 -6.71875,2.33945 -1.85256,0.62022 -3.8878,1.51444 -5.5,2.28098 -0.8061,0.38327 -1.50327,0.7307 -2.03125,0.99427 -0.52798,0.26356 -0.94133,0.46938 -0.9375,0.46789 -3.14497,1.22027 -10.82579,3.59371 -34.8125,14.06599 -7.23683,3.12768 -10.36073,4.87271 -11.90625,6.05335 -0.77276,0.59032 -1.14585,1.06159 -1.40625,1.43292 -0.2604,0.37133 -0.36957,0.60773 -0.6875,0.87729 l -0.0625,0.0585 -0.0625,0.0585 c -3.08824,5.75804 -2.09687,6.52155 -2.0625,9.62102 0.0291,2.62586 0.65601,5.30169 1.84375,7.69097 0.60405,1.21511 1.59538,2.17228 2.5,3.07054 0.89787,0.89156 1.88469,1.77981 3.03125,2.45643 2.87723,1.69795 6.01971,3.11693 9.375,3.83086 1.49715,0.31856 3.45865,0.42592 5.1875,0.43865 1.71459,0.0126 3.14319,-0.06 3.75,-0.14622 0.0132,-9.3e-4 0.0182,9.4e-4 0.0312,0 3.12011,-0.30667 3.5321,0.0621 9.75,-1.25746 l 0.0625,-0.0292 0.0625,-0.0292 c 1.64079,-0.83809 3.15557,-1.37702 4.25,-1.4914 0.54721,-0.0572 0.9963,-0.007 1.28125,0.11697 0.28495,0.12422 0.45408,0.29959 0.5625,0.64335 0.0126,0.04 -0.0119,0.28961 -0.125,0.58487 -0.11312,0.29525 -0.29115,0.62168 -0.5,0.96502 -0.20885,0.34334 -0.43319,0.69039 -0.625,0.96503 -0.19181,0.27464 -0.34632,0.46214 -0.4375,0.61411 -0.48136,0.80227 -1.13734,2.56786 -1.6875,4.79589 -0.55016,2.22802 -0.97241,4.8725 -0.84375,7.3108 0.12691,2.40534 0.26045,5.1883 0.28125,6.14108 0.0695,3.18694 1.26346,11.11962 2.28125,15.11875 3.41106,13.40286 9.9348,22.75674 20.3125,29.06777 4.36972,2.65738 6.63445,3.50126 8.4375,4.15254 0.0105,0.004 0.0208,0.0254 0.0312,0.0292 l 0,-0.0292 c 1.43759,0.60165 2.5743,1.01973 4.625,1.34519 11.02897,2.18305 17.98551,2.56166 32.03125,-0.26319 7.53862,-1.51615 12.0761,-3.00095 15.03125,-4.29876 2.95515,-1.29781 4.3453,-2.41132 5.53125,-3.15827 l 0.0312,-0.0292 c 1.87061,-1.34711 2.74393,-2.4142 2.84375,-3.56768 0.0998,-1.15347 -0.55266,-2.19012 -1.28125,-3.56767 -2.43029,-4.59494 -2.65775,-4.74943 -3.8125,-7.51551 -1.67109,-4.00294 -4.1141,-8.88198 -5.1875,-11.72654 -1.25721,-3.33166 -4.26446,-9.59756 -6,-12.45761 -1.06634,-1.75725 -2.08752,-4.42556 -2.40625,-7.07686 -0.31873,-2.6513 0.0759,-5.25655 1.75,-7.01838 2.44464,-2.57281 2.88111,-2.97851 4.875,-5.11756 2.37808,-2.55122 2.51059,-2.48405 4.8125,-5.14681 2.1984,-2.54303 6.07076,-5.79208 8.5,-8.94843 1.70297,-2.21269 2.83368,-3.32267 5.625,-7.80794 1.55447,-2.49785 3.59714,-6.40419 4.59375,-8.77297 0.79325,-1.88544 1.32244,-2.90916 1.78125,-3.36297 0.2294,-0.22691 0.40961,-0.31776 0.6875,-0.38016 0.27789,-0.0624 0.68087,-0.0898 1.1875,-0.0585 4.42995,0.27454 8.04885,-1.93126 10.09375,-5.35151 2.0449,-3.42025 2.53518,-8.03384 0.8125,-12.69156 -1.59934,-4.3242 -5.026,-8.46606 -12.53125,-9.70875 -6.1524,-1.01869 -9.41116,0.45466 -12.28125,2.63189 -1.64141,1.24515 -2.46721,1.96975 -3.09375,2.13476 -0.31327,0.0825 -0.60043,0.0619 -1.0625,-0.0877 -0.46207,-0.14969 -1.07884,-0.44442 -1.90625,-0.90654 l -0.0312,0 -0.0312,-0.0292 c 0,0 -1.13734,-0.47516 -1.75,-1.34519 -0.15781,-0.22411 -0.16787,-0.38487 -0.125,-0.58487 0.0429,-0.19999 0.17498,-0.43945 0.34375,-0.64335 0.33754,-0.4078 0.8125,-0.70184 0.8125,-0.70184 l 0.0312,-0.0292 0.0312,-0.0292 1.9375,-1.81308 1.875,-1.81308 0,-0.0292 0.0312,0 c 0.85477,-0.9654 1.5439,-1.93965 1.90625,-3.01205 0.36235,-1.0724 0.35177,-2.2395 -0.1875,-3.50919 l 0,-0.0292 c -0.47273,-1.04253 -1.06888,-1.73975 -1.5625,-2.19324 -0.4457,-0.40946 -0.74255,-0.57672 -0.8125,-0.61411 -0.0443,-0.0343 -0.0509,-0.0255 -0.0937,-0.0585 -1.15779,-0.88961 -1.8505,-1.3316 -2.46875,-1.66686 -0.64112,-0.34766 -1.23147,-0.6356 -2.5,-1.46216 -2.58974,-1.68746 -4.55526,-2.68577 -8.53125,-4.73741 -3.96377,-2.04533 -5.86577,-3.22134 -9.125,-4.35724 -2.35912,-0.8222 -4.12084,-1.30033 -5.8125,-1.43292 z"
         style="font-size:medium;font-style:normal;font-variant:normal;font-weight:normal;font-stretch:normal;text-indent:0;text-align:start;text-decoration:none;line-height:normal;letter-spacing:normal;word-spacing:normal;text-transform:none;direction:ltr;block-progression:tb;writing-mode:lr-tb;text-anchor:start;color:#000000;fill:#000000;fill-opacity:1;fill-rule:nonzero;stroke:none;stroke-width:1;marker:none;visibility:visible;display:inline;overflow:visible;enable-background:accumulate;font-family:AlArabiya;-inkscape-font-specification:AlArabiya" />
      <path
         id="path3661"
         d="m 357.34375,191.55811 c 1.56653,0.12483 3.20854,0.56492 5.53125,1.37443 3.16595,1.10339 4.98076,2.24092 8.96875,4.29875 3.97579,2.05153 5.88782,3.04681 8.4375,4.70816 1.30117,0.84784 1.97931,1.15821 2.59375,1.49141 0.61444,0.33319 1.19267,0.66794 2.40625,1.60838 l 0.0312,0.0292 0.0625,0.0292 c 0,0 0.27572,0.14808 0.6875,0.52638 0.40737,0.37424 0.92886,0.96804 1.34375,1.87156 0.004,0.01 -0.004,0.0194 0,0.0292 0.45286,1.08257 0.45404,1.9845 0.15625,2.86584 -0.29668,0.87803 -0.91671,1.75092 -1.71875,2.66113 -0.0104,0.0118 -0.0208,0.0175 -0.0312,0.0292 l -1.8125,1.78383 -0.0312,0.0292 -1.9375,1.78384 0.0312,0.0292 c -0.0648,0.0409 -0.5382,0.29865 -0.96875,0.81881 -0.22983,0.27768 -0.445,0.62115 -0.53125,1.02352 -0.0863,0.40236 -0.0138,0.86765 0.28125,1.2867 0.80801,1.14745 2.08483,1.68017 2.125,1.6961 6.2e-4,2.5e-4 0.0312,0 0.0312,0 0.8326,0.46419 1.44999,0.77672 2.03125,0.96503 0.58839,0.19062 1.1352,0.2542 1.65625,0.11697 1.0421,-0.27445 1.85573,-1.08659 3.46875,-2.31021 2.76589,-2.09818 5.53067,-3.43964 11.46875,-2.45643 7.18837,1.19023 10.25907,4.97905 11.78125,9.09464 1.63644,4.42453 1.17125,8.79932 -0.71875,11.96048 -1.89,3.16116 -5.14226,5.10508 -9.1875,4.85438 -0.54508,-0.0338 -1.02374,-0.0122 -1.46875,0.0877 -0.44501,0.0999 -0.84613,0.3057 -1.1875,0.64335 -0.68274,0.67531 -1.16886,1.7542 -1.96875,3.65541 -0.96199,2.2865 -3.04449,6.21674 -4.5625,8.65599 -2.76822,4.44813 -3.82881,5.4676 -5.5625,7.72021 -2.32326,3.01864 -6.17399,6.23546 -8.46875,8.88994 -2.28447,2.64259 -2.38495,2.57606 -4.78125,5.14681 -1.98827,2.13303 -2.4264,2.54058 -4.875,5.11757 -1.94309,2.04497 -2.33717,4.91548 -2,7.72021 0.33717,2.80473 1.38979,5.576 2.53125,7.45702 1.66668,2.74656 4.68386,9.07198 5.90625,12.3114 1.11296,2.94942 3.56872,7.8033 5.21875,11.75578 1.16685,2.79505 1.45199,3.02207 3.875,7.60324 0.73512,1.38989 1.22263,2.30343 1.15625,3.07054 -0.0658,0.7605 -0.68468,1.59656 -2.4375,2.86583 -0.0152,0.0111 -0.0159,0.0182 -0.0312,0.0292 -1.25842,0.79671 -2.53608,1.82378 -5.375,3.07054 -2.86329,1.25746 -7.29233,2.70487 -14.78125,4.21102 -13.96318,2.80825 -20.68762,2.46355 -31.65625,0.29244 -1.98843,-0.31558 -3.01014,-0.68851 -4.4375,-1.2867 l -0.0312,0 c -1.79937,-0.64954 -3.90373,-1.45095 -8.25,-4.09406 -10.16054,-6.17896 -16.53723,-15.27445 -19.90625,-28.51214 -0.98951,-3.88803 -2.18482,-11.92372 -2.25,-14.91405 -0.0216,-0.98937 -0.15402,-3.72979 -0.28125,-6.14108 -0.12159,-2.30445 0.27683,-4.90751 0.8125,-7.07686 0.53567,-2.16935 1.24272,-3.94764 1.59375,-4.5327 0.0299,-0.0499 0.17842,-0.27414 0.375,-0.55562 0.19658,-0.28148 0.46215,-0.65306 0.6875,-1.02351 0.22535,-0.37046 0.41707,-0.76088 0.5625,-1.14049 0.14543,-0.37961 0.25095,-0.74112 0.125,-1.14049 -0.17706,-0.56142 -0.57261,-1.00104 -1.09375,-1.22821 -0.52114,-0.22717 -1.11746,-0.27407 -1.78125,-0.2047 -1.29312,0.13514 -2.8434,0.74423 -4.5,1.57913 -0.0474,0.01 -0.047,-0.01 -0.0937,0 -0.0139,0.007 -0.0174,0.0222 -0.0312,0.0292 -6.00617,1.26566 -6.32068,0.87996 -9.53125,1.19897 l -0.0312,0 c -0.41609,0.0607 -1.93476,0.15866 -3.625,0.14621 -1.69024,-0.0124 -3.61318,-0.12096 -4.96875,-0.4094 -3.20415,-0.68177 -6.24979,-2.05403 -9.0625,-3.71389 -1.0353,-0.61096 -1.97252,-1.4451 -2.84375,-2.31022 -0.90778,-0.9014 -1.80195,-1.7803 -2.3125,-2.80735 -1.12164,-2.25632 -1.72229,-4.81329 -1.75,-7.3108 -0.0364,-3.28551 -1.06919,-3.51812 1.96875,-9.18238 0.33312,-0.31999 0.55075,-0.6224 0.75,-0.90654 0.22783,-0.32488 0.51493,-0.69056 1.21875,-1.22821 1.40764,-1.07531 4.48102,-2.82183 11.6875,-5.93638 23.96507,-10.46282 31.49819,-12.77502 34.75,-14.03675 0.21485,-0.0834 0.50496,-0.23442 1.03125,-0.49713 0.52629,-0.26271 1.23448,-0.61544 2.03125,-0.99427 1.59354,-0.75767 3.59534,-1.65592 5.375,-2.25173 2.34574,-0.78533 4.74585,-1.66149 6.75,-2.3687 2.00415,-0.70721 3.6523,-1.25443 4.3125,-1.37443 0.98067,-0.17827 1.75747,-0.38148 2.375,-0.6726 0.61753,-0.29111 1.09859,-0.68943 1.3125,-1.22821 0.21391,-0.53879 0.15171,-1.13412 -0.0625,-1.81308 -0.21421,-0.67897 -0.58719,-1.4477 -1.125,-2.3687 -1.02548,-1.75613 -1.37599,-2.47502 -1.625,-3.27525 -0.24901,-0.80022 -0.4018,-1.73528 -1.0625,-3.80162 -0.75449,-2.35966 0.88178,-5.01173 2.96875,-6.40426 3.37364,-2.25106 13.36876,-6.81337 19.25,-8.18811 1.99005,-0.46518 3.46472,-0.65121 5.03125,-0.52637 z"
         style="font-size:medium;font-style:normal;font-variant:normal;font-weight:normal;font-stretch:normal;text-indent:0;text-align:start;text-decoration:none;line-height:normal;letter-spacing:normal;word-spacing:normal;text-transform:none;direction:ltr;block-progression:tb;writing-mode:lr-tb;text-anchor:start;color:#000000;fill:#000000;fill-opacity:1;fill-rule:nonzero;stroke:none;stroke-width:1;marker:none;visibility:visible;display:inline;overflow:visible;enable-background:accumulate;font-family:AlArabiya;-inkscape-font-specification:AlArabiya;filter:url(#filter3656)" />
      <path
         id="path3659"
         d="m 372.59375,224.92463 c -1.27687,0.13253 -2.48044,0.39216 -3.34375,0.76032 -2.3578,1.00554 -5.58333,1.93289 -8.59375,2.54416 -3.01042,0.61128 -5.85029,0.89792 -7.28125,0.70184 -1.01121,-0.13856 -2.35725,0.1406 -3.9375,0.6726 -1.58025,0.53199 -3.37413,1.33966 -5.21875,2.28097 -3.68924,1.88262 -7.48768,4.3326 -9.71875,6.57972 -0.65664,0.66137 -1.39759,1.32876 -2.03125,1.84233 -0.63366,0.51357 -1.20919,0.89997 -1.375,0.96502 -0.32451,0.12733 -0.58638,0.34356 -0.96875,0.6726 -0.38237,0.32904 -0.85063,0.76422 -1.375,1.2867 -1.04874,1.04496 -2.35541,2.44725 -3.75,4.00632 -2.78918,3.11814 -5.95236,6.88861 -8.125,9.82573 -8.63765,11.67694 -12.08011,29.50659 -9.09375,46.55522 0.30206,1.72438 0.63448,3.46097 0.9375,4.88362 0.30302,1.42264 0.56552,2.50557 0.75,3.01205 0.3068,0.84229 0.97861,2.86777 1.5,4.50346 0.26497,0.83127 0.53374,1.62733 0.78125,2.22248 0.12376,0.29757 0.23947,0.53382 0.34375,0.73108 0.0521,0.0986 0.10199,0.18508 0.15625,0.26319 0.0392,0.0564 0.1101,0.14201 0.1875,0.2047 0.007,0.007 0.0374,0.026 0.0625,0.0585 0.0501,0.0649 0.13043,0.19018 0.21875,0.32168 0.17663,0.26299 0.40882,0.6243 0.6875,1.08199 0.55737,0.91538 1.28528,2.17196 2.03125,3.50919 1.76301,3.1604 4.96552,6.6213 8.25,9.32859 1.64224,1.35365 3.29622,2.51062 4.8125,3.33373 1.51628,0.82312 2.8732,1.34539 4.03125,1.31595 0.45533,-0.0116 0.94335,-0.13388 1.3125,-0.43865 0.36915,-0.30478 0.60026,-0.76152 0.8125,-1.37443 0.42448,-1.22583 0.73132,-3.19106 1.125,-6.55049 0.0479,-0.40843 0.48568,-1.46436 1.15625,-2.63189 0.67057,-1.16753 1.54633,-2.50489 2.5,-3.71389 2.81063,-3.5631 5.39469,-5.30459 7.78125,-5.43924 2.38656,-0.13465 4.80956,1.31679 7.375,4.56194 0.73996,0.93602 1.27682,1.63524 1.71875,2.13476 0.44193,0.49952 0.7789,0.82776 1.3125,0.90654 0.2668,0.0394 0.54327,-0.0135 0.75,-0.14622 0.20673,-0.13276 0.36696,-0.31964 0.53125,-0.52637 0.32859,-0.41348 0.67128,-0.97304 1.15625,-1.72535 0.44341,-0.68821 0.99454,-1.41905 1.53125,-1.98854 0.53671,-0.56949 1.09363,-0.99305 1.34375,-1.11125 0.33581,-0.15869 0.98199,-0.2283 1.78125,-0.14621 0.79926,0.0821 1.74755,0.30006 2.6875,0.61411 1.87991,0.62809 3.75232,1.68423 4.59375,2.66113 0.65246,0.75752 1.28127,1.26098 1.875,1.54989 0.59373,0.28891 1.23025,0.35479 1.71875,0.0585 0.4885,-0.29631 0.65798,-0.86401 0.625,-1.49141 -0.033,-0.62739 -0.25757,-1.37842 -0.71875,-2.25173 -0.80729,-1.52873 -2.83176,-5.89445 -4.46875,-9.65026 -0.82558,-1.89418 -1.70059,-3.68008 -2.46875,-5.05908 -0.38408,-0.68949 -0.75376,-1.27809 -1.0625,-1.72535 -0.30874,-0.44726 -0.47985,-0.76178 -0.84375,-0.96503 -0.61647,-0.3443 -1.34943,-0.13285 -2.0625,0.26319 -0.71307,0.39604 -1.48461,1.03017 -2.25,1.87157 -1.34829,1.48219 -3.00959,3.21562 -3.625,3.77237 -0.16297,0.14745 -0.86391,0.3765 -1.78125,0.4679 -0.91734,0.0914 -2.07357,0.0883 -3.1875,0 -1.11393,-0.0883 -2.19142,-0.23827 -3.03125,-0.4679 -0.83983,-0.22962 -1.38844,-0.61346 -1.4375,-0.70183 -0.1683,-0.30317 -0.56118,-0.43087 -0.875,-0.43865 -0.31382,-0.007 -0.60159,0.0492 -0.9375,0.17546 -0.67182,0.25244 -1.46661,0.73928 -2.25,1.37443 -1.43466,1.16315 -3.05287,1.62056 -4.78125,1.52065 -1.72838,-0.0999 -3.57219,-0.78968 -5.3125,-1.9593 -3.48062,-2.33922 -6.55201,-6.63295 -7.78125,-11.90199 -0.64835,-2.7791 -1.00691,-4.25932 -1.8125,-5.32227 -0.80559,-1.06295 -2.00363,-1.54921 -4.0625,-2.33946 -1.48438,-0.56974 -2.50699,-1.049 -3.125,-1.4914 -0.61801,-0.4424 -0.80702,-0.78034 -0.8125,-1.11125 -0.0121,-0.72802 0.24999,-1.12983 0.625,-1.40367 0.37501,-0.27384 0.92194,-0.40856 1.53125,-0.38016 l 0.0937,0 0.0625,-0.0292 c 5.15495,-1.20461 10.58155,-0.83444 16,-0.46789 5.40797,0.36584 10.80918,0.73986 15.9375,-0.52638 0.009,-0.002 0.0219,0.002 0.0312,0 12.83197,-2.75604 27.73387,-14.44022 37.90625,-29.5649 3.09732,-4.60522 4.76717,-7.40974 5.21875,-9.70875 0.45158,-2.29902 -0.44669,-4.0311 -2.25,-6.17033 -1.598,-1.89566 -3.34069,-5.04378 -3.8125,-6.78442 -0.54636,-2.01574 -1.47871,-3.7206 -2.625,-4.97135 -1.14629,-1.25075 -2.53159,-2.05408 -4.03125,-2.13476 -0.96997,-0.0522 -3.63227,-0.31851 -5.84375,-0.58486 -1.16452,-0.14025 -2.50438,-0.13253 -3.78125,0 z"
         style="font-size:medium;font-style:normal;font-variant:normal;font-weight:normal;font-stretch:normal;text-indent:0;text-align:start;text-decoration:none;line-height:normal;letter-spacing:normal;word-spacing:normal;text-transform:none;direction:ltr;block-progression:tb;writing-mode:lr-tb;text-anchor:start;color:#000000;fill:#000000;fill-opacity:1;fill-rule:nonzero;stroke:none;stroke-width:1;marker:none;visibility:visible;display:inline;overflow:visible;enable-background:accumulate;font-family:AlArabiya;-inkscape-font-specification:AlArabiya" />
      <path
         id="path3657"
         d="m 372.68745,225.86041 c 1.21138,-0.12838 2.50691,-0.12712 3.5625,0 2.22876,0.26843 4.85152,0.52812 5.90625,0.58487 1.15688,0.0622 2.3224,0.66941 3.34375,1.78383 1.02135,1.11443 1.892,2.72319 2.40625,4.62043 0.54241,2.00111 2.29556,5.11342 4,7.13535 1.74655,2.07191 2.45877,3.3926 2.0625,5.41 -0.39627,2.0174 -2.00834,4.79957 -5.09375,9.38708 -10.06805,14.96955 -24.91513,26.50469 -37.3125,29.15549 -4.92068,1.22133 -10.23794,0.86368 -15.65625,0.49714 -5.41831,-0.36654 -10.95322,-0.75522 -16.3125,0.49713 l 0,0.0292 c -0.73405,-0.008 -1.48544,0.13425 -2.0625,0.55562 -0.61977,0.45257 -1.01584,1.20804 -1,2.164 0.0112,0.6794 0.47034,1.27734 1.21875,1.81308 0.74841,0.53575 1.82134,1.05327 3.34375,1.63762 2.04933,0.78658 3.0054,1.20024 3.625,2.01778 0.6196,0.81755 0.97782,2.1973 1.625,4.97135 1.27949,5.48443 4.49781,9.95688 8.21875,12.45762 1.86047,1.25037 3.85054,2.02134 5.8125,2.13475 1.96196,0.11342 3.87718,-0.43889 5.5,-1.75459 0.71772,-0.58191 1.45352,-1.00538 1.96875,-1.19897 0.25761,-0.0968 0.43751,-0.1193 0.53125,-0.11697 0.0937,0.002 0.0183,-0.0255 0,-0.0585 0.35068,0.63167 1.1291,0.88528 2.0625,1.14048 0.9334,0.25521 2.0829,0.43381 3.25,0.52638 1.1671,0.0926 2.33796,0.10022 3.34375,0 1.00579,-0.10021 1.83845,-0.24568 2.375,-0.73108 0.70217,-0.63525 2.32419,-2.33216 3.6875,-3.83086 0.71297,-0.78378 1.42875,-1.34959 2,-1.66686 0.57125,-0.31728 0.92586,-0.32205 1.03125,-0.26319 -0.0329,-0.0183 0.24937,0.235 0.53125,0.64335 0.28188,0.40834 0.62541,0.96515 1,1.63762 0.74918,1.34492 1.62291,3.13165 2.4375,5.00059 1.64333,3.77037 3.65245,8.13303 4.5,9.73799 0.41881,0.79306 0.63319,1.43289 0.65625,1.87157 0.0231,0.43869 -0.10327,0.59226 -0.1875,0.64335 -0.0842,0.0511 -0.30616,0.0838 -0.71875,-0.11697 -0.41259,-0.20076 -0.97024,-0.62832 -1.5625,-1.31595 -1.06419,-1.23554 -3.03053,-2.25586 -5.03125,-2.92432 -1.00036,-0.33423 -2.00312,-0.57984 -2.90625,-0.67259 -0.90313,-0.0927 -1.70287,-0.0397 -2.34375,0.26319 -0.51856,0.24506 -1.07769,0.70205 -1.65625,1.31594 -0.57856,0.61389 -1.14545,1.36121 -1.625,2.10551 -0.49091,0.76153 -0.86399,1.33844 -1.125,1.66687 -0.1305,0.16422 -0.2256,0.25669 -0.28125,0.29243 -0.0557,0.0358 -0.0253,0.0301 -0.0312,0.0292 -0.0119,-0.002 -0.28586,-0.16013 -0.6875,-0.61411 -0.40164,-0.45398 -0.94362,-1.16455 -1.6875,-2.10551 -2.66049,-3.36539 -5.39657,-5.07386 -8.25,-4.91287 -2.85343,0.161 -5.60984,2.15548 -8.5,5.81941 -0.98459,1.24817 -1.8978,2.61915 -2.59375,3.83086 -0.69595,1.21171 -1.19403,2.20929 -1.28125,2.95357 -0.39232,3.34774 -0.6966,5.31836 -1.0625,6.37502 -0.18295,0.52833 -0.36247,0.82568 -0.53125,0.96503 -0.16878,0.13934 -0.33647,0.19658 -0.65625,0.2047 -0.79833,0.0203 -2.09401,-0.41876 -3.53125,-1.19897 -1.43724,-0.78021 -3.05255,-1.89488 -4.65625,-3.21676 -3.20739,-2.64376 -6.36094,-6.07116 -8.03125,-9.0654 -0.75091,-1.3461 -1.46523,-2.60884 -2.03125,-3.53843 -0.28301,-0.46479 -0.52874,-0.82834 -0.71875,-1.11124 -0.095,-0.14146 -0.17829,-0.25797 -0.25,-0.35092 -0.0359,-0.0465 -0.0567,-0.1061 -0.0937,-0.14622 -0.0237,-0.0256 -0.0852,-0.0563 -0.125,-0.0877 0.005,0.007 -0.004,-0.0319 0,-0.0292 -0.021,-0.032 -0.058,-0.0786 -0.0937,-0.14621 -0.0825,-0.1561 -0.1955,-0.39128 -0.3125,-0.6726 -0.23399,-0.56263 -0.49199,-1.32533 -0.75,-2.13475 -0.52459,-1.6457 -1.21165,-3.68451 -1.53125,-4.56195 -0.12872,-0.35338 -0.41843,-1.45583 -0.71875,-2.86583 -0.30032,-1.41 -0.63735,-3.14084 -0.9375,-4.85438 -2.94822,-16.83087 0.53182,-34.47703 8.96875,-45.88262 2.14321,-2.89732 5.29042,-6.66823 8.0625,-9.76724 1.38604,-1.54951 2.65962,-2.92366 3.6875,-3.94784 0.51394,-0.51209 0.95948,-0.95367 1.3125,-1.25746 0.35302,-0.30378 0.66416,-0.48797 0.6875,-0.49713 0.46455,-0.18226 0.99136,-0.57236 1.65625,-1.11124 0.66489,-0.53888 1.41052,-1.21268 2.09375,-1.90081 2.09169,-2.10674 5.85037,-4.55781 9.46875,-6.40427 1.80919,-0.92324 3.58165,-1.71344 5.09375,-2.22249 1.5121,-0.50904 2.7896,-0.73213 3.4375,-0.64335 1.73382,0.23757 4.55573,-0.0786 7.625,-0.70183 3.06927,-0.62323 6.35302,-1.55376 8.8125,-2.60265 0.69186,-0.29505 1.81987,-0.54422 3.03125,-0.6726 z"
         style="font-size:medium;font-style:normal;font-variant:normal;font-weight:normal;font-stretch:normal;text-indent:0;text-align:start;text-decoration:none;line-height:normal;letter-spacing:normal;word-spacing:normal;text-transform:none;direction:ltr;block-progression:tb;writing-mode:lr-tb;text-anchor:start;color:#000000;fill:#c87137;fill-opacity:1;fill-rule:nonzero;stroke:none;stroke-width:1;marker:none;visibility:visible;display:inline;overflow:visible;enable-background:accumulate;font-family:AlArabiya;-inkscape-font-specification:AlArabiya" />
      <path
         id="path3655"
         d="m 332.6562,226.97166 c -0.62533,-0.004 -1.38207,0.0974 -2.3125,0.29243 -1.86085,0.3901 -4.38997,1.16278 -7.625,2.3687 -4.76933,1.77786 -9.2769,3.65413 -12.34375,4.5327 -2.83223,0.81135 -4.62256,1.34423 -7.1875,2.04703 l -0.0312,0 -0.0625,0.0292 c -0.19497,0.0926 -1.05215,0.36923 -2.0625,0.6726 -1.01035,0.30336 -2.20292,0.64642 -3.25,0.96502 -2.1351,0.64966 -6.33355,2.26445 -9.40625,3.62616 -3.02222,1.33934 -7.88284,3.14931 -10.71875,4.15254 -4.59907,1.62698 -7.40219,3.73689 -8.875,6.02411 -1.47281,2.28721 -1.59688,4.75253 -1,6.98913 0.59688,2.2366 1.91801,4.25414 3.34375,5.8194 1.42574,1.56526 2.9306,2.66058 4.15625,3.01205 9.02909,2.58924 10.3238,2.15217 15.90625,1.40368 3.452,-0.46285 5.78759,-0.79958 8.15625,-2.28097 2.36866,-1.4814 4.69664,-4.04189 8.3125,-8.94843 l 0.0312,-0.0292 c 4.72787,-7.40381 13.21339,-16.60019 21.40625,-23.18988 2.13566,-1.71775 3.6332,-3.14357 4.53125,-4.26951 0.44902,-0.56297 0.74406,-1.05356 0.875,-1.52065 0.13094,-0.46708 0.0661,-0.9738 -0.3125,-1.2867 -0.37861,-0.3129 -0.90592,-0.40601 -1.53125,-0.4094 z"
         style="font-size:medium;font-style:normal;font-variant:normal;font-weight:normal;font-stretch:normal;text-indent:0;text-align:start;text-decoration:none;line-height:normal;letter-spacing:normal;word-spacing:normal;text-transform:none;direction:ltr;block-progression:tb;writing-mode:lr-tb;text-anchor:start;color:#000000;fill:#000000;fill-opacity:1;fill-rule:nonzero;stroke:none;stroke-width:1;marker:none;visibility:visible;display:inline;overflow:visible;enable-background:accumulate;font-family:AlArabiya;-inkscape-font-specification:AlArabiya" />
      <path
         id="path3653"
         d="m 332.6562,227.90744 c 0.50474,0.003 0.76587,0.1111 0.84375,0.17546 0.0779,0.0644 0.13699,0.0852 0.0625,0.35092 -0.0745,0.26572 -0.31211,0.68914 -0.71875,1.19897 -0.81329,1.01966 -2.29967,2.42893 -4.40625,4.1233 -8.27049,6.65211 -16.77955,15.83807 -21.59375,23.36533 -0.007,0.0108 -0.0244,0.0184 -0.0312,0.0292 -3.57612,4.84906 -5.8641,7.32988 -8.03125,8.68524 -2.17339,1.35926 -4.30075,1.67227 -7.75,2.13476 -5.62139,0.75371 -6.49338,1.22864 -15.46875,-1.34519 -0.84884,-0.24342 -2.34456,-1.27451 -3.6875,-2.74887 -1.34294,-1.47435 -2.57716,-3.38642 -3.125,-5.43924 -0.54784,-2.05282 -0.41837,-4.2302 0.90625,-6.28729 1.32462,-2.0571 3.88508,-4.03739 8.34375,-5.6147 2.85365,-1.00951 7.73014,-2.81579 10.8125,-4.18178 3.0319,-1.34364 7.24813,-2.94905 9.28125,-3.56768 1.03703,-0.31554 2.23219,-0.68867 3.25,-0.99427 0.97505,-0.29277 1.69756,-0.50974 2.125,-0.70183 0.0187,-0.008 0.0763,-0.021 0.0937,-0.0292 2.5157,-0.68976 4.29778,-1.18757 7.09375,-1.98854 3.18571,-0.91261 7.69319,-2.79341 12.4375,-4.56194 3.20678,-1.19539 5.69891,-1.96844 7.46875,-2.33946 0.88492,-0.18551 1.58901,-0.26593 2.09375,-0.26319 z"
         style="font-size:medium;font-style:normal;font-variant:normal;font-weight:normal;font-stretch:normal;text-indent:0;text-align:start;text-decoration:none;line-height:normal;letter-spacing:normal;word-spacing:normal;text-transform:none;direction:ltr;block-progression:tb;writing-mode:lr-tb;text-anchor:start;color:#000000;fill:#c87137;fill-opacity:1;fill-rule:nonzero;stroke:none;stroke-width:1;marker:none;visibility:visible;display:inline;overflow:visible;enable-background:accumulate;font-family:AlArabiya;-inkscape-font-specification:AlArabiya" />
      <path
         id="path3651"
         d="m 351.6562,238.31803 c -0.53385,0.0376 -1.14481,0.13733 -1.875,0.26319 -1.60928,0.27737 -2.73357,1.23754 -3.34375,2.3687 -0.61018,1.13116 -0.73347,2.44549 -0.34375,3.59692 l 0.65625,1.90081 c 0.42798,1.26445 1.70731,2.07499 3.09375,2.45643 1.38644,0.38143 2.93516,0.3703 4.09375,-0.23395 1.29246,-0.67406 2.38787,-1.95425 2.90625,-3.42146 0.51838,-1.4672 0.40094,-3.18381 -0.875,-4.56194 -1.1671,-1.26057 -1.91142,-1.93553 -2.84375,-2.22249 -0.46616,-0.14347 -0.9349,-0.1838 -1.46875,-0.14621 z"
         style="font-size:medium;font-style:normal;font-variant:normal;font-weight:normal;font-stretch:normal;text-indent:0;text-align:start;text-decoration:none;line-height:normal;letter-spacing:normal;word-spacing:normal;text-transform:none;direction:ltr;block-progression:tb;writing-mode:lr-tb;text-anchor:start;color:#000000;fill:#000000;fill-opacity:1;fill-rule:nonzero;stroke:none;stroke-width:1;marker:none;visibility:visible;display:inline;overflow:visible;enable-background:accumulate;font-family:AlArabiya;-inkscape-font-specification:AlArabiya" />
      <path
         id="path3649"
         d="m 352.81245,239.34154 c 0.61902,0.19053 1.26384,0.72539 2.40625,1.9593 1.03357,1.11635 1.1227,2.42362 0.6875,3.6554 -0.4352,1.23178 -1.43717,2.35707 -2.46875,2.89508 -0.81834,0.42679 -2.14067,0.49785 -3.3125,0.17546 -1.17183,-0.32239 -2.15041,-1.02335 -2.4375,-1.87157 l -0.625,-1.90081 c -0.30502,-0.90117 -0.23782,-1.99074 0.25,-2.89508 0.48782,-0.90433 1.34983,-1.61714 2.65625,-1.84232 1.45533,-0.25084 2.22473,-0.36598 2.84375,-0.17546 z"
         style="font-size:medium;font-style:normal;font-variant:normal;font-weight:normal;font-stretch:normal;text-indent:0;text-align:start;text-decoration:none;line-height:normal;letter-spacing:normal;word-spacing:normal;text-transform:none;direction:ltr;block-progression:tb;writing-mode:lr-tb;text-anchor:start;color:#000000;fill:#000000;fill-opacity:1;fill-rule:nonzero;stroke:none;stroke-width:1;marker:none;visibility:visible;display:inline;overflow:visible;enable-background:accumulate;font-family:AlArabiya;-inkscape-font-specification:AlArabiya" />
      <path
         id="path3647"
         d="m 361.37495,288.67487 -0.65625,0.11697 -5.46875,0.90654 -0.0625,0.0292 -0.0312,0 -3,1.19897 -0.375,0.14622 0.0937,0.38016 1.28125,5.46848 c 0.66435,2.83557 1.14584,4.56424 1.71875,5.49773 0.14323,0.23337 0.30002,0.4091 0.5,0.55562 0.19998,0.14651 0.48157,0.24431 0.75,0.2047 0.53686,-0.0793 0.82847,-0.45995 1.125,-0.93578 0.0562,-0.0903 0.28823,-0.42866 0.59375,-0.8773 0.30552,-0.44864 0.68587,-1.02331 1.0625,-1.69611 0.75326,-1.3456 1.52698,-3.06742 1.65625,-4.82513 l -0.0312,0 0.75,-5.52697 0.0937,-0.64335 z"
         style="font-size:medium;font-style:normal;font-variant:normal;font-weight:normal;font-stretch:normal;text-indent:0;text-align:start;text-decoration:none;line-height:normal;letter-spacing:normal;word-spacing:normal;text-transform:none;direction:ltr;block-progression:tb;writing-mode:lr-tb;text-anchor:start;color:#000000;fill:#000000;fill-opacity:1;fill-rule:nonzero;stroke:none;stroke-width:1;marker:none;visibility:visible;display:inline;overflow:visible;enable-background:accumulate;font-family:AlArabiya;-inkscape-font-specification:AlArabiya" />
      <path
         id="path3645"
         d="m 360.2187,289.8446 -0.65625,4.91286 0,0.0292 c -0.11378,1.54698 -0.81348,3.16276 -1.53125,4.44497 -0.35889,0.6411 -0.73539,1.20316 -1.03125,1.63762 -0.29586,0.43445 -0.50808,0.71889 -0.625,0.90654 -0.22673,0.36382 -0.38535,0.43 -0.375,0.43865 -0.0464,-0.0374 -0.15191,-0.10337 -0.25,-0.26319 -0.41783,-0.6808 -0.9661,-2.42219 -1.625,-5.23454 l -1.1875,-5.05908 2.5,-1.02351 0.0937,-0.0292 4.6875,-0.76032 z"
         style="font-size:medium;font-style:normal;font-variant:normal;font-weight:normal;font-stretch:normal;text-indent:0;text-align:start;text-decoration:none;line-height:normal;letter-spacing:normal;word-spacing:normal;text-transform:none;direction:ltr;block-progression:tb;writing-mode:lr-tb;text-anchor:start;color:#000000;fill:#c87137;fill-opacity:1;fill-rule:nonzero;stroke:none;stroke-width:1;marker:none;visibility:visible;display:inline;overflow:visible;enable-background:accumulate;font-family:AlArabiya;-inkscape-font-specification:AlArabiya" />
      <path
         id="path3643"
         d="m 344.06245,291.39449 -3.8125,0.0585 c -1.11554,0.0138 -2.2044,0.197 -3.125,0.49714 -0.9206,0.30014 -1.67675,0.68187 -2.0625,1.2867 -1.00098,1.56944 -0.90004,4.01783 -0.25,6.40427 0.65004,2.38643 1.87081,4.7023 3.5625,5.87789 0.20898,0.14526 0.39349,0.16055 0.59375,0.17546 0.20026,0.0149 0.42192,0.0254 0.65625,0 0.46866,-0.0506 0.9948,-0.17334 1.53125,-0.35092 l 0.34375,-0.11698 0,-0.14621 c 1.28786,-0.61332 2.30273,-1.93616 2.9375,-3.65541 0.69748,-1.88909 0.99022,-4.16669 0.65625,-6.31653 l -0.5312,-3.30449 -0.0625,-0.4094 -0.4375,0 z"
         style="font-size:medium;font-style:normal;font-variant:normal;font-weight:normal;font-stretch:normal;text-indent:0;text-align:start;text-decoration:none;line-height:normal;letter-spacing:normal;word-spacing:normal;text-transform:none;direction:ltr;block-progression:tb;writing-mode:lr-tb;text-anchor:start;color:#000000;fill:#000000;fill-opacity:1;fill-rule:nonzero;stroke:none;stroke-width:1;marker:none;visibility:visible;display:inline;overflow:visible;enable-background:accumulate;font-family:AlArabiya;-inkscape-font-specification:AlArabiya" />
      <path
         id="path3641"
         d="m 343.6562,292.33027 0.4375,2.89508 c 0.30721,1.97762 0.0495,4.16499 -0.59375,5.90713 -0.64322,1.74214 -1.67741,3.00973 -2.65625,3.33373 l -0.3437,0.0877 c -0.34697,0.0947 -0.72088,0.17453 -1,0.2047 -0.18811,0.0203 -0.33142,0.007 -0.4375,0 -0.10608,-0.007 -0.16349,-0.0485 -0.0937,0 -1.35601,-0.94232 -2.57606,-3.10678 -3.1875,-5.35151 -0.61144,-2.24473 -0.60541,-4.55722 0.125,-5.70243 0.14938,-0.23421 0.72617,-0.61481 1.53125,-0.87729 0.80508,-0.26249 1.84015,-0.42615 2.84375,-0.43865 l 3.375,-0.0585 z"
         style="font-size:medium;font-style:normal;font-variant:normal;font-weight:normal;font-stretch:normal;text-indent:0;text-align:start;text-decoration:none;line-height:normal;letter-spacing:normal;word-spacing:normal;text-transform:none;direction:ltr;block-progression:tb;writing-mode:lr-tb;text-anchor:start;color:#000000;fill:#c87137;fill-opacity:1;fill-rule:nonzero;stroke:none;stroke-width:1;marker:none;visibility:visible;display:inline;overflow:visible;enable-background:accumulate;font-family:AlArabiya;-inkscape-font-specification:AlArabiya" />
      <path
         id="path3639"
         d="m 347.81245,325.9015 c -0.33043,-0.12259 -0.73273,-0.0974 -1.0625,0.0585 -0.7677,0.36298 -1.50324,1.07898 -2.25,1.98854 -0.74676,0.90957 -1.48822,2.01082 -2.125,3.15827 -0.63678,1.14745 -1.17902,2.32038 -1.53125,3.39222 -0.35223,1.07183 -0.53873,2.04159 -0.375,2.80735 0.14937,0.69859 0.30681,1.24696 0.53125,1.72535 0.22444,0.47838 0.54983,0.89074 1,1.16973 0.90033,0.55796 2.14973,0.66806 4.28125,0.78956 l 3.3125,0.17546 0.5,0.0292 0.0312,-0.46789 0.25,-3.9186 c 0.18551,-2.99155 -0.0892,-5.82834 -0.65625,-7.86642 -0.28352,-1.01904 -0.63957,-1.83333 -1.09375,-2.39795 -0.22709,-0.28231 -0.48207,-0.52076 -0.8125,-0.64335 z"
         style="font-size:medium;font-style:normal;font-variant:normal;font-weight:normal;font-stretch:normal;text-indent:0;text-align:start;text-decoration:none;line-height:normal;letter-spacing:normal;word-spacing:normal;text-transform:none;direction:ltr;block-progression:tb;writing-mode:lr-tb;text-anchor:start;color:#000000;fill:#000000;fill-opacity:1;fill-rule:nonzero;stroke:none;stroke-width:1;marker:none;visibility:visible;display:inline;overflow:visible;enable-background:accumulate;font-family:AlArabiya;-inkscape-font-specification:AlArabiya" />
      <path
         id="path3637"
         d="m 347.18745,326.77879 c 0.11323,-0.0535 0.1612,-0.0329 0.25,0 0.0888,0.0329 0.21893,0.12765 0.375,0.32168 0.31215,0.38805 0.6727,1.12452 0.9375,2.07627 0.52959,1.9035 0.80494,4.67222 0.625,7.57399 l -0.21875,3.45071 -2.8125,-0.14622 c -2.10727,-0.12012 -3.24843,-0.29378 -3.8125,-0.64335 -0.28203,-0.17479 -0.45498,-0.39793 -0.625,-0.76033 -0.17002,-0.36239 -0.29292,-0.87367 -0.4375,-1.54989 -0.0971,-0.45404 0.0152,-1.31044 0.34375,-2.31021 0.32854,-0.99977 0.82429,-2.14102 1.4375,-3.246 0.61321,-1.10498 1.33118,-2.1886 2.03125,-3.0413 0.70007,-0.85269 1.40264,-1.48724 1.90625,-1.72535 z"
         style="font-size:medium;font-style:normal;font-variant:normal;font-weight:normal;font-stretch:normal;text-indent:0;text-align:start;text-decoration:none;line-height:normal;letter-spacing:normal;word-spacing:normal;text-transform:none;direction:ltr;block-progression:tb;writing-mode:lr-tb;text-anchor:start;color:#000000;fill:#c87137;fill-opacity:1;fill-rule:nonzero;stroke:none;stroke-width:1;marker:none;visibility:visible;display:inline;overflow:visible;enable-background:accumulate;font-family:AlArabiya;-inkscape-font-specification:AlArabiya" />
      <path
         id="path3635"
         d="m 365.74995,327.33442 c -0.32458,0.0146 -0.65428,0.10812 -0.9375,0.29243 -0.56645,0.3686 -1.07562,0.98095 -1.625,1.84232 -0.92813,1.45523 -1.796,3.80269 -2.34375,5.87789 -0.27387,1.03761 -0.46416,1.98097 -0.53125,2.74886 -0.0335,0.38395 -0.0437,0.73374 0,1.02352 0.0437,0.28977 0.12031,0.59496 0.46875,0.78956 0.30558,0.17067 0.51125,0.13842 0.84375,0.14622 0.3325,0.007 0.75198,0.007 1.21875,-0.0292 0.93355,-0.0737 2.11085,-0.24694 3.3125,-0.46789 l 4.28125,-0.78957 0.53125,-0.0877 -0.125,-0.49713 -1.5625,-5.35151 c -0.41745,-1.4393 -0.80312,-2.58094 -1.21875,-3.45071 -0.41563,-0.86976 -0.84916,-1.46433 -1.40625,-1.81308 -0.27855,-0.17437 -0.58167,-0.24856 -0.90625,-0.23394 z"
         style="font-size:medium;font-style:normal;font-variant:normal;font-weight:normal;font-stretch:normal;text-indent:0;text-align:start;text-decoration:none;line-height:normal;letter-spacing:normal;word-spacing:normal;text-transform:none;direction:ltr;block-progression:tb;writing-mode:lr-tb;text-anchor:start;color:#000000;fill:#000000;fill-opacity:1;fill-rule:nonzero;stroke:none;stroke-width:1;marker:none;visibility:visible;display:inline;overflow:visible;enable-background:accumulate;font-family:AlArabiya;-inkscape-font-specification:AlArabiya" />
      <path
         id="path3612"
         d="m 366.0937,328.32868 c 0.26765,0.16756 0.65111,0.63741 1.03125,1.43292 0.38014,0.79551 0.77774,1.92094 1.1875,3.33373 l 1.40625,4.85438 -3.78125,0.70183 c -1.16801,0.21477 -2.30213,0.36875 -3.1875,0.43865 -0.44269,0.035 -0.81912,0.0357 -1.09375,0.0292 -0.27463,-0.007 -0.48554,-0.091 -0.375,-0.0292 0.12478,0.0697 0.0575,0.0575 0.0312,-0.11697 -0.0263,-0.17446 -0.0299,-0.44686 0,-0.78957 0.0599,-0.6854 0.23499,-1.62786 0.5,-2.63189 0.53003,-2.00806 1.39564,-4.2949 2.21875,-5.58545 0.51458,-0.80682 0.99605,-1.35289 1.34375,-1.57914 0.3477,-0.22625 0.4511,-0.22604 0.71875,-0.0585 z"
         style="font-size:medium;font-style:normal;font-variant:normal;font-weight:normal;font-stretch:normal;text-indent:0;text-align:start;text-decoration:none;line-height:normal;letter-spacing:normal;word-spacing:normal;text-transform:none;direction:ltr;block-progression:tb;writing-mode:lr-tb;text-anchor:start;color:#000000;fill:#c87137;fill-opacity:1;fill-rule:nonzero;stroke:none;stroke-width:1;marker:none;visibility:visible;display:inline;overflow:visible;enable-background:accumulate;font-family:AlArabiya;-inkscape-font-specification:AlArabiya" />
    </g>
  </g>
</svg>
